<?xml version="1.0" standalone="no"?>
<!DOCTYPE svg PUBLIC "-//W3C//DTD SVG 20010904//EN"
 "http://www.w3.org/TR/2001/REC-SVG-20010904/DTD/svg10.dtd">
<svg version="1.0" xmlns="http://www.w3.org/2000/svg"
 width="225.000000pt" height="225.000000pt" viewBox="0 0 225.000000 225.000000"
 preserveAspectRatio="xMidYMid meet">
<metadata>
Created by potrace 1.15, written by Peter Selinger 2001-2017
</metadata>
<g transform="translate(0.000000,225.000000) scale(0.100000,-0.100000)"
fill="#000000" stroke="none">
<path d="M184 2210 c-42 -22 -101 -58 -130 -81 l-55 -42 3 -119 3 -120 115
-52 c122 -55 191 -91 153 -81 -16 4 -23 1 -28 -14 -3 -12 -4 -25 0 -31 9 -14
-27 -59 -47 -60 -13 0 -18 -8 -18 -29 0 -47 -17 -81 -40 -81 -26 0 -26 -18 2
-41 12 -11 16 -19 8 -19 -18 0 -39 -31 -40 -59 0 -21 -3 -23 -33 -18 -23 3
-40 0 -57 -13 -33 -25 -21 -33 55 -38 42 -3 65 -9 65 -17 0 -17 -42 -34 -73
-28 -32 6 -38 -16 -7 -24 16 -4 17 -7 6 -19 -8 -7 -25 -16 -40 -20 l-26 -6 0
-199 c0 -109 2 -199 4 -199 3 0 16 4 29 9 17 7 50 4 108 -9 46 -10 87 -16 90
-14 10 6 19 -23 19 -61 0 -18 7 -38 15 -45 13 -11 13 -16 2 -34 -24 -38 -29
-59 -12 -52 18 6 18 7 4 -32 -7 -20 -15 -29 -25 -25 -8 3 -14 -1 -14 -10 0
-22 -25 -28 -49 -11 -15 11 -26 12 -40 4 -37 -19 -60 -11 -85 29 -14 21 -29
54 -35 72 -7 27 -9 8 -10 -89 -1 -80 3 -121 9 -117 5 3 10 1 10 -4 0 -6 -4
-11 -10 -11 -6 0 -10 -73 -10 -200 l0 -200 426 0 426 0 -6 24 c-9 38 12 41 23
4 7 -25 9 -28 10 -10 1 27 21 29 28 2 5 -19 14 -20 218 -20 161 0 215 3 219
13 5 9 7 9 12 -1 4 -9 103 -12 450 -12 l444 1 0 444 c0 255 -4 445 -9 445 -15
0 -22 31 -33 129 -2 20 4 29 22 34 16 4 20 13 20 44 l-1 38 -20 -28 c-11 -15
-27 -27 -35 -27 -8 0 -17 -7 -20 -15 -4 -8 -10 -15 -14 -15 -12 0 -33 58 -27
74 3 8 1 17 -6 20 -7 2 18 3 56 2 58 -2 67 0 67 15 0 18 -25 49 -40 49 -4 0
-10 9 -13 21 -3 12 -10 18 -16 14 -7 -4 -8 -12 -1 -24 8 -16 6 -17 -15 -13
-14 2 -25 9 -25 14 0 7 -5 6 -13 -1 -11 -8 -16 -5 -25 15 -7 14 -12 31 -12 39
0 8 -15 17 -37 20 -50 9 -105 25 -119 36 -13 11 -24 81 -17 108 4 14 15 21 41
23 54 5 55 30 1 28 -70 -3 -69 -4 -69 45 0 25 3 45 8 45 4 0 22 14 41 30 38
33 43 36 40 18 -5 -42 12 -49 44 -20 19 16 20 16 34 -5 18 -26 38 -30 47 -8 3
8 16 15 28 15 38 0 48 13 46 58 -1 23 -3 42 -5 42 -2 0 -16 -13 -31 -29 -24
-25 -32 -28 -79 -24 -29 3 -53 8 -53 11 1 20 33 45 62 48 37 5 107 64 75 64
-10 0 -28 -5 -40 -11 -12 -5 1 10 28 35 57 52 69 55 96 24 l18 -23 1 28 c0 19
-5 27 -17 27 -15 0 -15 1 0 18 14 15 17 40 17 127 0 96 -3 114 -26 161 -43 87
-36 85 -244 82 -168 -3 -182 -4 -168 -19 15 -14 13 -19 -16 -57 -49 -61 -86
-152 -93 -227 -4 -41 -9 -61 -14 -53 -28 43 13 175 82 267 37 49 39 54 25 70
-14 15 -39 18 -168 20 -125 2 -151 0 -140 -11 10 -10 8 -16 -10 -30 -21 -15
-21 -17 -5 -24 11 -4 25 0 37 11 18 16 20 16 26 1 3 -9 17 -16 29 -16 26 0 46
-21 27 -28 -7 -2 -12 -10 -12 -18 0 -9 -4 -13 -9 -10 -18 11 -43 -6 -38 -26 5
-16 3 -17 -9 -7 -8 6 -17 9 -21 5 -3 -3 -1 -6 6 -6 8 0 11 -8 8 -20 -3 -11 -1
-18 4 -14 5 3 10 -1 10 -8 1 -7 3 -23 4 -35 2 -19 -1 -21 -16 -12 -17 9 -18 7
-8 -18 6 -16 21 -47 35 -70 13 -23 24 -45 24 -50 0 -12 -61 92 -100 172 -40
80 -129 176 -185 199 -32 14 -104 16 -531 16 l-493 0 -77 -40z m556 -679 c0
-60 -113 -403 -148 -450 -24 -32 -42 -38 -42 -13 0 11 15 69 34 128 19 60 51
162 70 226 35 113 57 154 77 143 5 -4 9 -19 9 -34z m646 -359 c0 -49 5 -76 13
-82 9 -5 14 -30 14 -69 0 -49 -4 -64 -19 -76 -25 -19 -34 -19 -86 3 -24 11
-59 22 -79 26 -28 5 -38 12 -43 32 -4 14 -4 30 0 35 8 14 63 3 85 -17 16 -14
18 -14 29 5 9 18 8 22 -7 27 -10 3 -28 10 -41 15 -38 15 -64 11 -131 -22 -46
-22 -71 -29 -90 -24 -14 3 -44 8 -65 10 -24 3 -49 14 -66 30 -14 14 -29 22
-33 19 -3 -4 -13 1 -22 9 -20 20 -19 28 1 20 14 -5 16 -1 12 21 -4 18 -1 29 7
33 8 2 16 11 19 19 4 11 1 14 -13 9 -11 -3 -22 -1 -26 5 -8 13 14 42 26 34 5
-3 9 2 9 10 0 21 10 20 40 -4 14 -11 33 -20 42 -20 9 0 20 -4 23 -10 4 -6 -9
-10 -31 -10 -56 0 -29 -15 51 -28 75 -12 129 -5 169 21 27 18 36 13 36 -20 0
-14 6 -23 15 -23 9 0 25 -9 37 -20 23 -21 48 -27 48 -10 0 6 -6 10 -12 10 -10
0 -9 3 1 9 8 5 14 29 15 61 1 38 6 55 20 65 16 12 21 12 35 -2 12 -12 16 -36
17 -91z m328 6 c37 15 20 -26 -27 -69 -20 -18 -28 -34 -25 -47 3 -10 -3 -30
-13 -43 l-18 -24 -10 28 c-6 16 -11 34 -11 40 0 22 -20 -17 -20 -40 0 -20 -4
-22 -32 -17 -21 4 -45 20 -65 42 -35 41 -35 52 2 44 14 -2 25 0 25 6 0 13 56
36 69 27 6 -3 11 -1 11 4 0 6 7 11 15 11 8 0 15 5 15 10 0 6 6 10 13 10 6 0
18 14 26 31 l14 32 13 -24 c7 -13 15 -23 18 -21z"/>
<path d="M2104 1435 c-3 -14 -3 -32 0 -41 4 -9 1 -23 -6 -31 -10 -12 -9 -18 7
-29 10 -8 27 -14 37 -14 15 0 18 -7 14 -37 -2 -21 -1 -28 1 -15 2 12 11 22 19
22 8 0 14 3 14 8 0 4 14 15 30 24 26 15 30 23 30 61 0 42 -1 44 -26 39 -16 -3
-36 3 -54 17 -38 28 -58 27 -66 -4z"/>
</g>
</svg>
